<svg width="215" height="40" viewBox="0 0 215 40" fill="none" xmlns="http://www.w3.org/2000/svg">
<path d="M107.188 31.6736C107.023 31.5364 106.877 31.3779 106.754 31.2024L105.568 29.5686C104.421 30.0698 103.177 30.3137 101.923 30.2828C99.7993 30.4165 97.7085 29.7128 96.1092 28.326C94.7392 27.0215 94.0158 25.0548 93.9392 22.426C93.9205 21.8531 93.9108 21.0434 93.9102 19.9971C93.9102 18.948 93.9202 18.1499 93.9392 17.5968C93.8972 16.5182 94.074 15.4422 94.459 14.4321C94.844 13.4219 95.4295 12.498 96.1812 11.7145C97.7524 10.3239 99.8174 9.60466 101.924 9.7143C102.965 9.6593 104.007 9.80767 104.989 10.1509C105.972 10.4941 106.877 11.0255 107.651 11.7145C108.4 12.5004 108.982 13.4256 109.365 14.4362C109.748 15.4467 109.924 16.5225 109.881 17.6007C109.92 18.705 109.94 19.5051 109.939 20.001C109.939 20.4765 109.92 21.2861 109.881 22.4299C109.804 25.0587 109.1 27.0109 107.769 28.2865L109.707 30.9722C109.761 31.0695 109.79 31.1777 109.794 31.2883C109.79 31.4386 109.728 31.5815 109.62 31.6876C109.512 31.7937 109.367 31.8548 109.215 31.8583H107.738C107.538 31.8632 107.343 31.7977 107.188 31.6736ZM105.626 26.5302C106.648 25.3518 107.175 23.8325 107.101 22.2828C107.14 21.1396 107.16 20.378 107.159 19.998C107.159 19.5792 107.14 18.8173 107.101 17.7123C107.173 16.16 106.645 14.6387 105.626 13.455C105.141 12.9822 104.561 12.6138 103.924 12.373C103.288 12.1321 102.607 12.0239 101.926 12.0553C101.243 12.025 100.56 12.1336 99.9207 12.3743C99.2813 12.6151 98.6988 12.9829 98.2092 13.455C97.1806 14.6342 96.6475 16.1574 96.7192 17.7123C96.7005 18.2655 96.6908 19.0274 96.6902 19.998C96.6902 20.9509 96.6998 21.7125 96.7192 22.2828C96.6449 23.8325 97.1725 25.3518 98.1942 26.5302C99.2213 27.4232 100.543 27.9158 101.911 27.9158C103.28 27.9158 104.601 27.4232 105.628 26.5302" fill="#1E1D20"/>
<path d="M114.39 29.8158C114.272 29.687 114.21 29.5181 114.216 29.3446V10.6855C114.206 10.503 114.269 10.3239 114.39 10.1857C114.449 10.1238 114.521 10.0752 114.6 10.0432C114.68 10.0112 114.766 9.99643 114.852 10H121.91C123.759 9.89128 125.588 10.433 127.072 11.5291C127.707 12.0788 128.206 12.7657 128.53 13.5365C128.854 14.3073 128.994 15.1413 128.939 15.9741C128.992 17.2533 128.604 18.5126 127.839 19.5459C127.06 20.5092 125.982 21.1924 124.771 21.4898L129.226 29.1184C129.28 29.2145 129.309 29.3218 129.313 29.4316C129.309 29.5823 129.247 29.726 129.14 29.8327C129.032 29.9394 128.886 30.0009 128.734 30.0045H127.464C127.221 30.0192 126.98 29.9493 126.784 29.8069C126.599 29.6466 126.446 29.4524 126.336 29.235L122.084 21.9205H116.935V29.3496C116.937 29.4377 116.921 29.5253 116.887 29.6066C116.852 29.6879 116.8 29.7609 116.735 29.8207C116.602 29.9441 116.425 30.0108 116.243 30.0064H114.852C114.766 30.0102 114.68 29.9955 114.6 29.9635C114.52 29.9314 114.448 29.8827 114.389 29.8207M121.794 19.5775C124.705 19.5775 126.161 18.3678 126.163 15.9484C126.164 13.529 124.708 12.3177 121.795 12.3144H116.935V19.5716L121.794 19.5775Z" fill="#1E1D20"/>
<path d="M138.632 28.317C137.819 27.5893 137.175 26.6969 136.744 25.7009C136.312 24.7048 136.103 23.6285 136.132 22.5455C136.112 22.0312 136.102 21.1925 136.102 20.0296C136.102 18.8495 136.112 17.9935 136.132 17.4614C136.113 16.383 136.329 15.3133 136.766 14.3248C137.203 13.3363 137.849 12.4521 138.663 11.7323C140.497 10.3068 142.795 9.58983 145.126 9.71523C146.704 9.69016 148.272 9.97209 149.741 10.545C151.018 11.0367 152.133 11.8665 152.965 12.9433C153.765 14.0217 154.201 15.3221 154.21 16.6593C154.211 16.7399 154.195 16.8199 154.163 16.8939C154.13 16.9678 154.082 17.034 154.022 17.088C153.9 17.2008 153.738 17.2624 153.572 17.2599H149.464C149.253 17.2768 149.043 17.2205 148.871 17.1008C148.71 16.9376 148.596 16.7356 148.54 16.5151C148.372 15.7418 147.936 15.0503 147.309 14.5593C146.655 14.1582 145.893 13.9632 145.125 14.0002C142.945 14.0002 141.817 15.2007 141.741 17.6016C141.722 18.1146 141.712 18.9048 141.712 19.9723C141.711 21.0398 141.721 21.8487 141.741 22.3993C141.817 24.8009 142.945 26.0014 145.125 26.0007C145.894 26.0323 146.656 25.8325 147.309 25.4278C147.943 24.9489 148.381 24.259 148.54 23.4858C148.58 23.2624 148.691 23.0574 148.857 22.9001C149.036 22.7832 149.249 22.728 149.464 22.743H153.572C153.738 22.7404 153.9 22.8021 154.022 22.9149C154.082 22.9688 154.131 23.035 154.163 23.1089C154.195 23.1829 154.211 23.263 154.21 23.3436C154.201 24.6802 153.765 25.98 152.965 27.0576C152.134 28.1354 151.018 28.9659 149.741 29.4579C148.272 30.0304 146.704 30.312 145.126 30.2867C142.791 30.4196 140.486 29.7184 138.632 28.3111" fill="#1E1D20"/>
<path d="M159.069 28.3169C158.251 27.5865 157.602 26.6897 157.168 25.6882C156.733 24.6866 156.523 23.604 156.552 22.5147C156.532 21.982 156.523 21.1635 156.523 20.0591C156.524 18.9548 156.534 18.1257 156.552 17.5719C156.524 16.4798 156.735 15.3947 157.172 14.3911C157.609 13.3876 158.261 12.4895 159.083 11.7588C160.965 10.4295 163.22 9.71484 165.533 9.71484C167.847 9.71484 170.102 10.4295 171.983 11.7588C172.805 12.4897 173.457 13.3878 173.894 14.3913C174.331 15.3948 174.543 16.4799 174.514 17.5719C174.552 18.6776 174.571 19.5066 174.572 20.0591C174.572 20.6307 174.553 21.4493 174.514 22.5147C174.544 23.6025 174.336 24.6838 173.905 25.685C173.473 26.6863 172.829 27.5839 172.014 28.3169C170.106 29.6015 167.851 30.2886 165.542 30.2886C163.233 30.2886 160.977 29.6015 159.069 28.3169ZM167.95 25.1027C168.611 24.3355 168.952 23.3497 168.905 22.3439C168.944 21.2405 168.963 20.4493 168.963 19.9732C168.963 19.4971 168.944 18.7246 168.905 17.6588C168.952 16.653 168.61 15.6673 167.95 14.9C167.634 14.5952 167.258 14.3581 166.845 14.2032C166.432 14.0484 165.992 13.9793 165.55 14.0001C165.105 13.9773 164.659 14.0455 164.241 14.2003C163.823 14.3551 163.441 14.5933 163.12 14.9C162.459 15.6666 162.118 16.6528 162.165 17.6588C162.145 18.1916 162.135 18.963 162.135 19.9732C162.135 21.0015 162.145 21.7937 162.165 22.3439C162.118 23.3499 162.459 24.3362 163.12 25.1027C163.441 25.4094 163.823 25.6476 164.241 25.8024C164.659 25.9572 165.105 26.0253 165.55 26.0026C165.992 26.0234 166.432 25.9543 166.845 25.7994C167.258 25.6446 167.634 25.4074 167.95 25.1027Z" fill="#1E1D20"/>
<path d="M178.059 29.7883C177.99 29.7241 177.935 29.6466 177.898 29.5606C177.861 29.4747 177.842 29.382 177.842 29.2885V10.744C177.836 10.5488 177.908 10.3591 178.042 10.2155C178.109 10.1448 178.19 10.0891 178.28 10.0521C178.37 10.0151 178.467 9.99774 178.565 10.0012H186.173C188.565 9.85471 190.93 10.5703 192.828 12.0152C193.64 12.7463 194.282 13.6417 194.711 14.6403C195.14 15.6389 195.346 16.7172 195.314 17.8016C195.333 18.3548 195.342 19.088 195.343 20.0014C195.344 20.9148 195.334 21.6391 195.314 22.1745C195.121 27.3946 192.123 30.0043 186.319 30.0036H178.565C178.47 30.004 178.377 29.9852 178.29 29.9483C178.203 29.9114 178.124 29.8573 178.059 29.7893M186.173 25.7177C186.657 25.7576 187.143 25.7024 187.605 25.5552C188.067 25.408 188.494 25.1718 188.863 24.8603C189.513 24.0954 189.845 23.1146 189.789 22.1172C189.826 21.566 189.846 20.8516 189.847 19.9738C189.848 19.0959 189.829 18.391 189.789 17.8589C189.813 17.3657 189.736 16.8728 189.565 16.4091C189.393 15.9454 189.129 15.5202 188.789 15.1583C188.016 14.5276 187.026 14.2156 186.025 14.2871H183.282V25.7167L186.173 25.7177Z" fill="#1E1D20"/>
<path d="M198.856 29.7876C198.787 29.7232 198.733 29.6457 198.696 29.5597C198.659 29.4737 198.64 29.3812 198.641 29.2878V10.7432C198.635 10.5483 198.707 10.3587 198.841 10.2158C198.907 10.1447 198.988 10.0887 199.079 10.0516C199.169 10.0144 199.266 9.99695 199.364 10.0004H213.016C213.115 9.99938 213.214 10.0179 213.305 10.0548C213.397 10.0917 213.481 10.1464 213.551 10.2155C213.621 10.2847 213.677 10.367 213.714 10.4576C213.752 10.5482 213.771 10.6453 213.77 10.7432V13.5722C213.773 13.6686 213.755 13.7645 213.718 13.8535C213.68 13.9425 213.624 14.0224 213.552 14.0879C213.407 14.2208 213.215 14.2918 213.017 14.2854H203.878V17.9145H212.378C212.477 17.9132 212.575 17.9315 212.667 17.9684C212.759 18.0052 212.842 18.0599 212.912 18.1292C212.982 18.1984 213.038 18.2808 213.075 18.3716C213.112 18.4623 213.13 18.5594 213.129 18.6573V21.2611C213.131 21.3591 213.113 21.4565 213.075 21.5474C213.038 21.6384 212.983 21.7211 212.913 21.7905C212.843 21.86 212.76 21.9149 212.668 21.9518C212.576 21.9888 212.477 22.0072 212.378 22.0059H203.878V25.716H213.249C213.348 25.7149 213.447 25.7334 213.538 25.7703C213.63 25.8072 213.714 25.8619 213.784 25.9311C213.854 26.0002 213.91 26.0825 213.947 26.1731C213.985 26.2637 214.004 26.3608 214.003 26.4588V29.2878C214.006 29.3841 213.988 29.4801 213.951 29.569C213.913 29.658 213.857 29.7379 213.785 29.8034C213.64 29.9362 213.448 30.0071 213.25 30.0009H199.364C199.269 30.0016 199.175 29.9829 199.087 29.946C199 29.9091 198.921 29.8549 198.856 29.7866" fill="#1E1D20"/>
<path d="M49.4498 29.8007C49.3785 29.7351 49.3223 29.6553 49.2849 29.5665C49.2475 29.4778 49.2297 29.3821 49.2328 29.286V10.7415C49.2314 10.6436 49.2499 10.5465 49.2873 10.4558C49.3246 10.3652 49.38 10.2828 49.4501 10.2137C49.5202 10.1445 49.6036 10.0899 49.6955 10.0532C49.7873 10.0164 49.8857 9.99824 49.9848 9.9997H53.2538C53.4711 9.98872 53.6868 10.0428 53.8725 10.1549C54.0583 10.267 54.2054 10.4319 54.2948 10.6279L59.2698 19.427L64.2698 10.6279C64.3594 10.431 64.5073 10.2656 64.6941 10.1535C64.8808 10.0413 65.0976 9.9877 65.3158 9.9997H68.5848C68.6838 9.99824 68.7822 10.0164 68.874 10.0532C68.9659 10.0899 69.0493 10.1445 69.1194 10.2137C69.1896 10.2828 69.2449 10.3652 69.2822 10.4558C69.3196 10.5465 69.3381 10.6436 69.3368 10.7415V29.287C69.3398 29.3831 69.322 29.4788 69.2846 29.5675C69.2472 29.6563 69.191 29.7361 69.1198 29.8017C68.9744 29.9341 68.7824 30.005 68.5848 29.9992H64.9108C64.7219 29.9928 64.5426 29.9156 64.4092 29.7833C64.2759 29.651 64.1985 29.4736 64.1928 29.287V18.8847L61.0688 24.5417C60.9806 24.7349 60.8387 24.8992 60.6595 25.0155C60.4802 25.1319 60.2712 25.1954 60.0568 25.1986H58.4928C58.2808 25.1857 58.0758 25.1183 57.8983 25.0031C57.7208 24.8879 57.5769 24.7288 57.4808 24.5417L54.3808 18.8847V29.287C54.3838 29.3831 54.366 29.4788 54.3286 29.5675C54.2912 29.6563 54.235 29.7361 54.1638 29.8017C54.0184 29.9341 53.8264 30.005 53.6288 29.9992H49.9848C49.7871 30.005 49.5951 29.9341 49.4498 29.8017" fill="#1E1D20"/>
<path d="M75.3538 35.2582C75.2974 35.2021 75.2531 35.1352 75.2237 35.0617C75.1943 34.9882 75.1804 34.9095 75.1828 34.8305C75.1822 34.7044 75.2018 34.5791 75.2408 34.4591L77.5258 29.0885L71.9698 16.116C71.9253 16.0155 71.896 15.909 71.8828 15.8C71.9146 15.6222 72.0004 15.4582 72.1288 15.3298C72.1866 15.2701 72.2562 15.2227 72.3332 15.1906C72.4103 15.1585 72.4932 15.1423 72.5768 15.1431H76.0188C76.2063 15.1366 76.3905 15.192 76.5425 15.3006C76.6945 15.4092 76.8054 15.5648 76.8578 15.7427L80.0688 23.8592L83.3688 15.7427C83.4344 15.5673 83.5527 15.4159 83.7078 15.3087C83.863 15.2016 84.0475 15.1438 84.2368 15.1431H87.6498C87.7334 15.1423 87.8163 15.1585 87.8934 15.1906C87.9704 15.2227 88.04 15.2701 88.0978 15.3298C88.1562 15.3821 88.2031 15.4458 88.2354 15.5168C88.2678 15.5879 88.2849 15.6648 88.2858 15.7427C88.2872 15.8691 88.2676 15.9949 88.2278 16.1151L80.0398 34.8305C79.9704 35.0097 79.8467 35.1634 79.6857 35.2706C79.5246 35.3779 79.334 35.4336 79.1398 35.43H75.7878C75.7074 35.4322 75.6274 35.418 75.5528 35.3885C75.4782 35.3589 75.4104 35.3146 75.3538 35.2582Z" fill="#1E1D20"/>
<path d="M14.463 18.5702H4.339C3.18898 18.5689 2.08641 18.1172 1.27303 17.3141C0.459654 16.5111 0.00185241 15.4222 0 14.2862L0 4.28596C0.00132333 3.14966 0.458892 2.06026 1.27233 1.25677C2.08576 0.453282 3.18863 0.00130715 4.339 0H14.463C15.613 0.00182976 16.7154 0.454036 17.5284 1.25747C18.3414 2.0609 18.7987 3.15 18.8 4.28596V14.2862C18.7981 15.4218 18.3406 16.5104 17.5277 17.3134C16.7147 18.1164 15.6127 18.5684 14.463 18.5702ZM4.339 2.85764C3.95566 2.85816 3.58817 3.00881 3.31711 3.27656C3.04604 3.54431 2.89353 3.90731 2.893 4.28596V14.2862C2.89326 14.665 3.04566 15.0283 3.31676 15.2962C3.58785 15.5642 3.95549 15.715 4.339 15.7155H14.463C14.8463 15.715 15.2138 15.5643 15.4849 15.2966C15.756 15.0288 15.9085 14.6659 15.909 14.2872V4.28596C15.9085 3.90731 15.756 3.54431 15.4849 3.27656C15.2138 3.00881 14.8463 2.85816 14.463 2.85764H4.339Z" fill="#5482DB"/>
<path d="M7.23116 5.71484H11.5702C11.9536 5.71511 12.3212 5.86567 12.5923 6.13348C12.8635 6.40129 13.0159 6.76443 13.0162 7.14317V11.4291C13.0159 11.8079 12.8635 12.171 12.5923 12.4388C12.3212 12.7066 11.9536 12.8572 11.5702 12.8575H7.23116C6.84773 12.8572 6.48009 12.7066 6.20897 12.4388C5.93785 12.171 5.78542 11.8079 5.78516 11.4291V7.14317C5.78542 6.76443 5.93785 6.40129 6.20897 6.13348C6.48009 5.86567 6.84773 5.71511 7.23116 5.71484Z" fill="#5482DB"/>
<path d="M28.9265 27.1445H33.2655C33.6489 27.1448 34.0165 27.2954 34.2877 27.5632C34.5588 27.831 34.7112 28.1941 34.7115 28.5729V32.8588C34.7112 33.2376 34.5588 33.6007 34.2877 33.8685C34.0165 34.1363 33.6489 34.2869 33.2655 34.2871H28.9265C28.543 34.2869 28.1754 34.1363 27.9043 33.8685C27.6332 33.6007 27.4807 33.2376 27.4805 32.8588V28.5729C27.4807 28.1941 27.6332 27.831 27.9043 27.5632C28.1754 27.2954 28.543 27.1448 28.9265 27.1445Z" fill="#5482DB"/>
<path d="M14.463 39.9999H4.339C3.18898 39.9986 2.08641 39.5469 1.27303 38.7438C0.459654 37.9407 0.00185241 36.8519 0 35.7159L0 25.7156C0.00132333 24.5793 0.458892 23.49 1.27233 22.6865C2.08576 21.883 3.18863 21.431 4.339 21.4297H14.463C15.613 21.4315 16.7154 21.8837 17.5284 22.6872C18.3414 23.4906 18.7987 24.5797 18.8 25.7156V35.7159C18.7981 36.8515 18.3406 37.9401 17.5277 38.7431C16.7147 39.5461 15.6127 39.9981 14.463 39.9999ZM4.339 24.2873C3.95566 24.2878 3.58817 24.4385 3.31711 24.7062C3.04604 24.974 2.89353 25.337 2.893 25.7156V35.7159C2.89326 36.0947 3.04566 36.458 3.31676 36.7259C3.58785 36.9939 3.95549 37.1447 4.339 37.1452H14.463C14.8463 37.1447 15.2138 36.994 15.4849 36.7263C15.756 36.4585 15.9085 36.0955 15.909 35.7169V25.7156C15.9085 25.337 15.756 24.974 15.4849 24.7062C15.2138 24.4385 14.8463 24.2878 14.463 24.2873H4.339Z" fill="#5482DB"/>
<path d="M36.1583 18.5702H26.0343C24.8843 18.5689 23.7817 18.1172 22.9683 17.3141C22.155 16.5111 21.6972 15.4222 21.6953 14.2862V4.28596C21.6966 3.14966 22.1542 2.06026 22.9676 1.25677C23.7811 0.453282 24.8839 0.00130715 26.0343 0L36.1583 0C37.3083 0.00182976 38.4107 0.454036 39.2237 1.25747C40.0367 2.0609 40.494 3.15 40.4953 4.28596V14.2862C40.4935 15.4218 40.0359 16.5104 39.223 17.3134C38.41 18.1164 37.308 18.5684 36.1583 18.5702ZM26.0343 2.85764C25.651 2.85816 25.2835 3.00881 25.0124 3.27656C24.7414 3.54431 24.5888 3.90731 24.5883 4.28596V14.2862C24.5888 14.6649 24.7414 15.0279 25.0124 15.2956C25.2835 15.5634 25.651 15.714 26.0343 15.7145H36.1583C36.5417 15.714 36.9091 15.5634 37.1802 15.2956C37.4513 15.0279 37.6038 14.6649 37.6043 14.2862V4.28596C37.6038 3.90731 37.4513 3.54431 37.1802 3.27656C36.9091 3.00881 36.5417 2.85816 36.1583 2.85764H26.0343Z" fill="#5482DB"/>
<path d="M36.1583 39.9999H26.0343C24.8843 39.9986 23.7817 39.5469 22.9683 38.7438C22.155 37.9407 21.6972 36.8519 21.6953 35.7159V25.7156C21.6966 24.5793 22.1542 23.49 22.9676 22.6865C23.7811 21.883 24.8839 21.431 26.0343 21.4297H36.1583C37.3083 21.4315 38.4107 21.8837 39.2237 22.6872C40.0367 23.4906 40.494 24.5797 40.4953 25.7156V35.7159C40.4935 36.8515 40.0359 37.9401 39.223 38.7431C38.41 39.5461 37.308 39.9981 36.1583 39.9999ZM26.0343 24.2873C25.651 24.2878 25.2835 24.4385 25.0124 24.7062C24.7414 24.974 24.5888 25.337 24.5883 25.7156V35.7159C24.5888 36.0946 24.7414 36.4575 25.0124 36.7253C25.2835 36.993 25.651 37.1437 26.0343 37.1442H36.1583C36.5417 37.1437 36.9091 36.993 37.1802 36.7253C37.4513 36.4575 37.6038 36.0946 37.6043 35.7159V25.7156C37.6038 25.337 37.4513 24.974 37.1802 24.7062C36.9091 24.4385 36.5417 24.2878 36.1583 24.2873H26.0343Z" fill="#5482DB"/>
</svg>
