<svg width="151" height="28" viewBox="0 0 151 28" fill="none" xmlns="http://www.w3.org/2000/svg">
  <g clip-path="url(#a)">
    <path
      d="M75.13 22.17a1.7 1.7 0 0 1-.3-.33L74 20.7c-.8.35-1.68.52-2.56.5-1.48.1-2.95-.4-4.07-1.37a5.69 5.69 0 0 1-1.52-4.13 52.04 52.04 0 0 1 0-3.38 5.62 5.62 0 0 1 1.57-4.12 6.47 6.47 0 0 1 8.04 0 5.65 5.65 0 0 1 1.56 4.12c.03.77.04 1.33.04 1.68 0 .33-.01.9-.04 1.7a5.68 5.68 0 0 1-1.48 4.1l1.36 1.88a.5.5 0 0 1 .06.22.38.38 0 0 1-.12.28.4.4 0 0 1-.29.12h-1.03a.6.6 0 0 1-.39-.13Zm-1.1-3.6a4.23 4.23 0 0 0 1.04-2.97l.04-1.6c0-.3-.01-.83-.04-1.6a4.26 4.26 0 0 0-1.03-2.98 3.5 3.5 0 0 0-2.6-.98 3.53 3.53 0 0 0-2.6.98 4.24 4.24 0 0 0-1.04 2.98 46.92 46.92 0 0 0 0 3.2 4.23 4.23 0 0 0 1.03 2.97 3.98 3.98 0 0 0 5.2 0ZM80.18 20.87a.46.46 0 0 1-.12-.33V7.48a.5.5 0 0 1 .12-.35.42.42 0 0 1 .33-.13h4.94c1.3-.08 2.58.3 3.62 1.07a3.78 3.78 0 0 1 1.31 3.1c.04.9-.23 1.79-.77 2.5a3.98 3.98 0 0 1-2.15 1.37l3.12 5.34c.04.07.06.14.07.22a.38.38 0 0 1-.13.28.4.4 0 0 1-.28.12h-.9a.74.74 0 0 1-.47-.14 1.3 1.3 0 0 1-.31-.4l-2.98-5.12h-3.61v5.2a.43.43 0 0 1-.14.33.5.5 0 0 1-.35.13h-.97a.42.42 0 0 1-.33-.13Zm5.2-7.17c2.03 0 3.06-.85 3.06-2.54 0-1.7-1.02-2.54-3.07-2.54h-3.4v5.08h3.4ZM97.17 19.82a5.24 5.24 0 0 1-1.75-4.04 51.27 51.27 0 0 1 0-3.56A5.23 5.23 0 0 1 97.2 8.2c1.29-1 2.9-1.5 4.52-1.41 1.11-.02 2.2.18 3.24.58.9.34 1.67.92 2.26 1.68.56.75.87 1.66.87 2.6a.39.39 0 0 1-.13.3.46.46 0 0 1-.31.12h-2.88a.64.64 0 0 1-.42-.11.9.9 0 0 1-.23-.41 2.38 2.38 0 0 0-.86-1.37c-.46-.28-1-.42-1.54-.4-1.52 0-2.31.85-2.37 2.53a49.54 49.54 0 0 0 0 3.36c.06 1.68.85 2.52 2.38 2.52a2.7 2.7 0 0 0 1.53-.4c.44-.33.75-.82.86-1.36.03-.15.1-.3.22-.4a.7.7 0 0 1 .43-.12h2.88a.46.46 0 0 1 .41.26c.02.05.03.1.03.16a4.4 4.4 0 0 1-.87 2.6 5.22 5.22 0 0 1-2.26 1.68c-1.03.4-2.13.6-3.23.58a6.9 6.9 0 0 1-4.56-1.38M111.5 19.82a5.26 5.26 0 0 1-1.77-4.06 48.58 48.58 0 0 1 0-3.46 5.26 5.26 0 0 1 1.77-4.07 7.86 7.86 0 0 1 9.05 0 5.26 5.26 0 0 1 1.77 4.07 51.39 51.39 0 0 1 0 3.46 5.27 5.27 0 0 1-1.75 4.06 8.15 8.15 0 0 1-9.08 0Zm6.22-2.25c.46-.53.7-1.23.67-1.93.03-.77.04-1.33.04-1.66 0-.33-.01-.87-.04-1.62.03-.7-.21-1.4-.67-1.93a2.27 2.27 0 0 0-1.68-.63 2.3 2.3 0 0 0-1.7.63c-.47.53-.7 1.22-.67 1.93a46.63 46.63 0 0 0 0 3.28c-.04.7.2 1.4.67 1.93a2.3 2.3 0 0 0 1.7.63 2.27 2.27 0 0 0 1.68-.63ZM124.8 20.85a.48.48 0 0 1-.14-.35V7.52a.51.51 0 0 1 .3-.48.48.48 0 0 1 .2-.04h5.34a7 7 0 0 1 4.66 1.41 5.25 5.25 0 0 1 1.74 4.05 47.87 47.87 0 0 1 0 3.06c-.13 3.65-2.24 5.48-6.3 5.48h-5.44a.5.5 0 0 1-.35-.15Zm5.7-2.85a2.6 2.6 0 0 0 1.88-.6c.46-.53.69-1.22.65-1.92a23 23 0 0 0 0-2.98 2.59 2.59 0 0 0-.7-1.89 2.76 2.76 0 0 0-1.93-.61h-1.93v8h2.03ZM139.39 20.85a.47.47 0 0 1-.15-.35V7.52a.52.52 0 0 1 .14-.37.48.48 0 0 1 .36-.15h9.57a.5.5 0 0 1 .38.15.5.5 0 0 1 .15.37V9.5a.46.46 0 0 1-.15.36c-.1.1-.24.14-.38.14h-6.4v2.54h5.96a.51.51 0 0 1 .37.15.5.5 0 0 1 .15.37v1.82a.5.5 0 0 1-.15.37.52.52 0 0 1-.37.15h-5.96V18h6.56a.5.5 0 0 1 .38.15.5.5 0 0 1 .15.37v1.98a.46.46 0 0 1-.15.36c-.1.1-.24.14-.38.14h-9.73a.49.49 0 0 1-.35-.15ZM34.66 20.86a.47.47 0 0 1-.15-.36V7.52a.5.5 0 0 1 .15-.37.5.5 0 0 1 .38-.15h2.29a.76.76 0 0 1 .73.44l3.49 6.16 3.5-6.16a.76.76 0 0 1 .73-.44h2.3a.5.5 0 0 1 .37.15.5.5 0 0 1 .15.37V20.5a.47.47 0 0 1-.15.36c-.1.1-.24.14-.38.14H45.5a.49.49 0 0 1-.36-.15.47.47 0 0 1-.15-.35v-7.28l-2.19 3.96a.8.8 0 0 1-.7.46H41a.86.86 0 0 1-.72-.46l-2.17-3.96v7.28a.47.47 0 0 1-.15.36c-.1.1-.24.14-.37.14h-2.55a.53.53 0 0 1-.38-.14ZM52.82 24.68a.4.4 0 0 1-.12-.3c0-.09.01-.18.04-.26l1.6-3.76-3.9-9.08a.77.77 0 0 1-.06-.22.62.62 0 0 1 .18-.33.43.43 0 0 1 .31-.13h2.42a.6.6 0 0 1 .58.42l2.25 5.68 2.32-5.68a.65.65 0 0 1 .6-.42h2.4a.43.43 0 0 1 .31.13.4.4 0 0 1 .13.29.8.8 0 0 1-.04.26l-5.74 13.1a.66.66 0 0 1-.63.42h-2.35a.42.42 0 0 1-.3-.12"
      fill="#1E1D20" />
    <path
      d="M10.14 13h-7.1A3.02 3.02 0 0 1 0 10V3a3.02 3.02 0 0 1 3.04-3h7.1a3.03 3.03 0 0 1 3.04 3v7a3.03 3.03 0 0 1-3.04 3ZM3.04 2a1 1 0 0 0-1.01 1v7a1 1 0 0 0 1.01 1h7.1a1 1 0 0 0 1.02-1V3a1 1 0 0 0-1.02-1h-7.1Z"
      fill="#5D82D5" />
    <path
      d="M5.07 4h3.04a1 1 0 0 1 1.02 1v3A1 1 0 0 1 8.1 9H5.07a1 1 0 0 1-1.01-1V5a1 1 0 0 1 1.01-1ZM20.28 19h3.04a1 1 0 0 1 1.01 1v3a1 1 0 0 1-1.01 1h-3.04a1 1 0 0 1-1.02-1v-3a1 1 0 0 1 1.02-1ZM10.14 28h-7.1A3.02 3.02 0 0 1 0 25v-7a3.03 3.03 0 0 1 3.04-3h7.1a3.03 3.03 0 0 1 3.04 3v7a3.03 3.03 0 0 1-3.04 3Zm-7.1-11a1 1 0 0 0-1.01 1v7a1 1 0 0 0 1.01 1h7.1a1 1 0 0 0 1.02-1v-7a1 1 0 0 0-1.02-1h-7.1ZM25.35 13h-7.1a3.02 3.02 0 0 1-3.04-3V3a3.03 3.03 0 0 1 3.04-3h7.1a3.02 3.02 0 0 1 3.04 3v7a3.02 3.02 0 0 1-3.04 3Zm-7.1-11a1 1 0 0 0-1.01 1v7a1 1 0 0 0 1.01 1h7.1a1 1 0 0 0 1.01-1V3a1 1 0 0 0-1.01-1h-7.1Z"
      fill="#5D82D5" />
    <path
      d="M25.35 28h-7.1a3.02 3.02 0 0 1-3.04-3v-7a3.03 3.03 0 0 1 3.04-3h7.1a3.03 3.03 0 0 1 3.04 3v7a3.02 3.02 0 0 1-3.04 3Zm-7.1-11a1 1 0 0 0-1.01 1v7a1 1 0 0 0 1.01 1h7.1a1 1 0 0 0 1.01-1v-7a1 1 0 0 0-1.01-1h-7.1Z"
      fill="#5D82D5" />
  </g>
  <defs>
    <clipPath id="a">
      <path fill="#fff" d="M0 0h150v28H0z" />
    </clipPath>
  </defs>
</svg>
