<?xml version="1.0" standalone="no"?>
<!DOCTYPE svg PUBLIC "-//W3C//DTD SVG 20010904//EN"
 "http://www.w3.org/TR/2001/REC-SVG-20010904/DTD/svg10.dtd">
<svg version="1.0" xmlns="http://www.w3.org/2000/svg"
 width="700.000000pt" height="700.000000pt" viewBox="0 0 700.000000 700.000000"
 preserveAspectRatio="xMidYMid meet">
<metadata>
Created by potrace 1.14, written by Peter Selinger 2001-2017
</metadata>
<g transform="translate(0.000000,700.000000) scale(0.100000,-0.100000)"
fill="#000000" stroke="none">
<path d="M616 6990 c-149 -26 -283 -97 -397 -210 -76 -75 -93 -100 -137 -191
-28 -57 -56 -129 -64 -159 -10 -44 -13 -231 -13 -925 l0 -870 23 -80 c60 -208
197 -373 387 -465 157 -76 116 -73 1010 -77 854 -4 939 -1 1065 42 194 66 363
223 437 406 61 150 58 105 58 1044 0 966 3 920 -75 1080 -74 151 -184 262
-332 334 -163 80 -100 75 -1058 77 -470 1 -877 -2 -904 -6z m1786 -392 c79
-37 142 -98 181 -177 l32 -66 0 -850 0 -850 -27 -57 c-34 -74 -112 -152 -186
-186 l-57 -27 -850 0 -850 0 -66 32 c-79 39 -140 102 -177 181 l-27 57 0 855
0 855 22 48 c43 91 142 176 243 208 14 4 403 7 865 6 l840 -2 57 -27z"/>
<path d="M983 6241 c-29 -11 -65 -28 -81 -40 -48 -34 -112 -109 -135 -159 -22
-46 -22 -54 -22 -512 l0 -465 27 -57 c37 -79 98 -142 177 -181 l66 -32 434 -3
c414 -3 437 -2 502 18 119 36 208 128 244 252 14 49 16 113 13 490 l-3 433
-27 57 c-37 79 -98 142 -177 181 l-66 32 -450 2 c-421 3 -453 1 -502 -16z"/>
<path d="M4235 6983 c-147 -31 -262 -93 -370 -198 -131 -128 -198 -277 -216
-480 -6 -67 -9 -412 -7 -885 4 -758 5 -777 26 -853 73 -264 261 -452 530 -530
l77 -22 855 0 c971 0 935 -3 1102 83 152 77 279 215 342 371 57 141 57 139 53
1071 -3 959 2 893 -80 1060 -34 69 -58 102 -132 175 -49 50 -115 105 -145 122
-69 41 -177 79 -261 92 -41 7 -361 11 -884 10 -686 -1 -831 -3 -890 -16z
m1817 -386 c74 -36 139 -101 175 -175 l28 -57 0 -860 0 -860 -28 -56 c-34 -70
-109 -142 -185 -177 l-57 -27 -850 0 c-848 0 -850 0 -895 21 -72 35 -127 80
-165 136 -67 102 -66 84 -63 989 3 810 3 814 25 867 41 102 121 177 226 214
49 16 105 17 892 15 l840 -2 57 -28z"/>
<path d="M550 3330 c-252 -65 -448 -259 -522 -515 l-23 -80 0 -870 c0 -934 -1
-907 52 -1038 63 -156 199 -304 345 -375 164 -81 100 -76 1058 -79 754 -3 864
-2 934 12 222 45 407 185 508 383 86 167 83 131 83 1102 0 938 3 887 -60 1042
-65 161 -217 312 -383 382 -135 57 -114 56 -1052 55 -822 0 -869 -1 -940 -19z
m1795 -355 c110 -29 195 -102 249 -215 21 -45 21 -47 21 -895 l0 -850 -27 -57
c-35 -76 -107 -151 -177 -185 l-56 -28 -860 0 -860 0 -55 27 c-71 35 -143 107
-178 178 l-27 55 0 855 0 855 26 55 c48 103 133 176 239 204 84 23 1618 23
1705 1z"/>
<path d="M4250 3294 c-36 -8 -108 -35 -160 -61 -80 -39 -110 -62 -186 -138
-78 -77 -98 -105 -138 -186 -79 -164 -77 -125 -74 -1117 l3 -877 27 -78 c68
-200 200 -348 392 -437 153 -72 137 -71 1101 -68 l860 3 70 24 c247 82 413
249 496 496 l24 70 3 860 c3 986 6 948 -80 1124 -43 89 -62 116 -132 185 -92
92 -175 144 -291 184 l-80 27 -885 2 c-734 1 -896 -1 -950 -13z m1771 -358
c107 -25 199 -99 251 -204 l23 -47 0 -860 0 -860 -27 -57 c-53 -114 -163 -192
-296 -209 -91 -12 -1499 -11 -1590 1 -137 18 -255 106 -304 228 l-23 57 0 840
0 840 31 65 c50 105 145 184 251 209 21 5 396 9 833 10 629 1 807 -2 851 -13z"/>
<path d="M4707 2569 c-107 -26 -201 -104 -250 -207 l-32 -67 0 -450 c0 -447 0
-450 23 -507 30 -75 96 -147 174 -189 l63 -34 470 0 470 0 57 27 c73 34 142
103 176 176 l27 57 0 470 0 470 -34 63 c-42 78 -114 144 -189 174 -56 23 -63
23 -487 25 -236 1 -447 -3 -468 -8z"/>
</g>
</svg>
