<svg width="26" height="26" viewBox="0 0 26 26" fill="none" xmlns="http://www.w3.org/2000/svg">
<path d="M26 12.9984C26.0004 16.0945 24.8958 19.089 22.8849 21.4432C20.8741 23.7974 18.0891 25.3567 15.031 25.8404V16.7564H18.06L18.637 12.9984H15.031V10.5594C15.0059 10.2787 15.0442 9.99599 15.1432 9.73215C15.2422 9.46831 15.3992 9.2301 15.6027 9.03516C15.8062 8.84023 16.0509 8.69356 16.3187 8.606C16.5866 8.51845 16.8707 8.49226 17.15 8.52938H18.789V5.32938C17.8265 5.17389 16.8539 5.089 15.879 5.07538C12.91 5.07538 10.969 6.87538 10.969 10.1334V12.9984H7.669V16.7564H10.969V25.8404C8.5152 25.4522 6.22399 24.3692 4.36662 22.7193C2.50926 21.0695 1.16353 18.922 0.488739 16.5311C-0.186048 14.1402 -0.161626 11.606 0.559112 9.2285C1.27985 6.85104 2.66672 4.72987 4.55554 3.11613C6.44435 1.50239 8.75601 0.463648 11.2168 0.122884C13.6777 -0.21788 16.1846 0.153603 18.4409 1.19335C20.6971 2.2331 22.6082 3.89758 23.9479 5.98972C25.2875 8.08187 25.9997 10.5141 26 12.9984Z" fill="#1877F2"/>
<path d="M18.06 16.7562L18.636 12.9982H15.031V10.5592C15.0059 10.2785 15.0442 9.9958 15.1432 9.73196C15.2421 9.46812 15.3992 9.22992 15.6026 9.03499C15.8061 8.84005 16.0509 8.69338 16.3187 8.60583C16.5865 8.51828 16.8706 8.49209 17.15 8.5292H18.789V5.32919C17.8265 5.17368 16.8539 5.08879 15.879 5.0752C12.91 5.0752 10.969 6.87519 10.969 10.1332V12.9972H7.66797V16.7552H10.968V25.8392C12.3141 26.0499 13.6848 26.0499 15.031 25.8392V16.7562H18.06Z" fill="white"/>
</svg>
