<svg width="26" height="27" viewBox="0 0 26 27" fill="none" xmlns="http://www.w3.org/2000/svg">
<path d="M25.0175 10.7422H14.4124C14.1875 10.7422 13.9718 10.8315 13.8128 10.9906C13.6538 11.1496 13.5645 11.3653 13.5645 11.5902V14.9782C13.5645 15.0896 13.5864 15.1998 13.629 15.3027C13.6716 15.4056 13.7341 15.4991 13.8128 15.5778C13.8915 15.6566 13.985 15.719 14.0879 15.7616C14.1908 15.8043 14.3011 15.8262 14.4124 15.8262H20.3844C19.7312 17.5182 18.5206 18.9369 16.9525 19.8482L19.4995 24.2562C21.4769 23.1445 23.1217 21.5252 24.2644 19.5655C25.407 17.6058 26.006 15.3767 25.9995 13.1082C26.005 12.5498 25.9561 11.9921 25.8535 11.4432C25.8181 11.247 25.7151 11.0694 25.5623 10.9413C25.4096 10.8132 25.2168 10.7428 25.0175 10.7422Z" fill="#167EE6"/>
<path d="M12.9991 20.9151C11.6112 20.9133 10.2482 20.5464 9.04691 19.8513C7.84563 19.1563 6.84831 18.1574 6.15507 16.9551L1.74707 19.4961C2.59915 20.9754 3.73446 22.2722 5.08809 23.3124C6.44171 24.3527 7.98711 25.1159 9.63589 25.5584C11.2847 26.001 13.0045 26.1141 14.6971 25.8915C16.3897 25.6689 18.0218 25.1149 19.5001 24.2611V24.2551L16.9531 19.8471C15.7527 20.5465 14.3883 20.9151 12.9991 20.9151Z" fill="#12B347"/>
<path d="M19.5 24.2597V24.2537L16.953 19.8457C15.753 20.5453 14.389 20.9142 13 20.9147V26.0017C15.2821 26.0026 17.5242 25.4018 19.5 24.2597Z" fill="#0F993E"/>
<path d="M5.08652 13.0018C5.08703 11.6128 5.45591 10.2488 6.15552 9.04881L1.74752 6.50781C0.602867 8.48064 0 10.721 0 13.0018C0 15.2827 0.602867 17.523 1.74752 19.4958L6.15552 16.9548C5.45591 15.7548 5.08703 14.3908 5.08652 13.0018Z" fill="#FFD500"/>
<path d="M12.9991 5.08882C14.8322 5.08597 16.6089 5.72252 18.0231 6.88882C18.1849 7.02348 18.3912 7.09289 18.6015 7.08346C18.8118 7.07402 19.011 6.98643 19.1601 6.83782L21.5601 4.43782C21.6427 4.3546 21.7073 4.25526 21.7499 4.14598C21.7924 4.03671 21.812 3.91984 21.8074 3.80266C21.8028 3.68548 21.7741 3.57051 21.7231 3.4649C21.6722 3.35929 21.6 3.26532 21.5111 3.18882C20.0658 1.93042 18.3597 1.00786 16.5154 0.487467C14.6711 -0.0329302 12.7344 -0.138238 10.8445 0.179115C8.95466 0.496467 7.15858 1.2286 5.5854 2.32287C4.01222 3.41714 2.70103 4.84638 1.74609 6.50782L6.15409 9.04882C6.84742 7.84633 7.84489 6.84739 9.04637 6.15231C10.2478 5.45723 11.611 5.09046 12.9991 5.08882Z" fill="#FF4B26"/>
<path d="M18.024 6.89295C18.1858 7.02761 18.3921 7.09702 18.6024 7.08759C18.8127 7.07815 19.0119 6.99056 19.161 6.84195L21.561 4.44195C21.6436 4.35873 21.7082 4.25939 21.7508 4.15011C21.7933 4.04084 21.8129 3.92397 21.8083 3.80679C21.8037 3.68961 21.775 3.57464 21.724 3.46903C21.6731 3.36342 21.6009 3.26944 21.512 3.19295C19.153 1.13653 16.1295 0.00309448 13 0.00195312V5.08895C14.8336 5.08722 16.6103 5.72521 18.024 6.89295Z" fill="#D93F21"/>
</svg>
