<svg width="59" height="58" xmlns="http://www.w3.org/2000/svg" fill="none">

 <g>
  <title>Layer 1</title>
  <g id="svg_9">
   <path id="svg_1" fill="white" d="m21.5288,27.87752c3.3296,0 6.0287,-2.7201 6.0287,-6.0755c0,-3.3553 -2.6991,-6.0754 -6.0287,-6.0754c-3.3295,0 -6.0287,2.7201 -6.0287,6.0754c0,3.3554 2.6992,6.0755 6.0287,6.0755z"/>
   <path id="svg_2" fill="white" d="m21.5288,44.72662c3.3296,0 6.0287,-2.7201 6.0287,-6.0754c0,-3.3554 -2.6991,-6.0755 -6.0287,-6.0755c-3.3295,0 -6.0287,2.7201 -6.0287,6.0755c0,3.3553 2.6992,6.0754 6.0287,6.0754z"/>
   <path id="svg_3" fill="white" d="m37.4712,27.87752c3.3296,0 6.0287,-2.7201 6.0287,-6.0755c0,-3.3553 -2.6991,-6.0754 -6.0287,-6.0754c-3.3296,0 -6.0287,2.7201 -6.0287,6.0754c0,3.3554 2.6991,6.0755 6.0287,6.0755z"/>
   <path id="svg_4" fill="#BFD5FF" d="m37.4712,44.72662c3.3296,0 6.0287,-2.7201 6.0287,-6.0754c0,-3.3554 -2.6991,-6.0755 -6.0287,-6.0755c-3.3296,0 -6.0287,2.7201 -6.0287,6.0755c0,3.3553 2.6991,6.0754 6.0287,6.0754z"/>
  </g>
 </g>
</svg>