<svg width="59" height="58" viewBox="0 0 59 58" fill="none" xmlns="http://www.w3.org/2000/svg">
<path d="M35.2705 17H16.2705C12.9568 17 10.2705 19.6863 10.2705 23V42C10.2705 45.3137 12.9568 48 16.2705 48H35.2705C38.5842 48 41.2705 45.3137 41.2705 42V23C41.2705 19.6863 38.5842 17 35.2705 17Z" fill="#5D82D5"/>
<path d="M20.7705 28H30.7705C31.1683 28 31.5499 28.158 31.8312 28.4393C32.1125 28.7206 32.2705 29.1022 32.2705 29.5C32.2705 29.8978 32.1125 30.2794 31.8312 30.5607C31.5499 30.842 31.1683 31 30.7705 31H20.7705C20.3727 31 19.9912 30.842 19.7099 30.5607C19.4285 30.2794 19.2705 29.8978 19.2705 29.5C19.2705 29.1022 19.4285 28.7206 19.7099 28.4393C19.9912 28.158 20.3727 28 20.7705 28Z" fill="white"/>
<path d="M20.7705 34H30.7705C31.1683 34 31.5499 34.158 31.8312 34.4393C32.1125 34.7206 32.2705 35.1022 32.2705 35.5C32.2705 35.8978 32.1125 36.2794 31.8312 36.5607C31.5499 36.842 31.1683 37 30.7705 37H20.7705C20.3727 37 19.9912 36.842 19.7099 36.5607C19.4285 36.2794 19.2705 35.8978 19.2705 35.5C19.2705 35.1022 19.4285 34.7206 19.7099 34.4393C19.9912 34.158 20.3727 34 20.7705 34Z" fill="white"/>
<path d="M40.7705 24C44.3604 24 47.2705 21.0898 47.2705 17.5C47.2705 13.9101 44.3604 11 40.7705 11C37.1807 11 34.2705 13.9101 34.2705 17.5C34.2705 21.0898 37.1807 24 40.7705 24Z" fill="#BFD5FF"/>
</svg>
