<svg width="59" height="58" viewBox="0 0 59 58" fill="none" xmlns="http://www.w3.org/2000/svg">
<path d="M33.2829 14H14.2735C10.9581 14 8.27051 16.6863 8.27051 20V39C8.27051 42.3137 10.9581 45 14.2735 45H33.2829C36.5982 45 39.2859 42.3137 39.2859 39V20C39.2859 16.6863 36.5982 14 33.2829 14Z" fill="#BFD5FF"/>
<path d="M33.5634 32.5198C32.9593 32.1675 32.4581 31.6631 32.1098 31.0569C31.7614 30.4507 31.5781 29.7639 31.5781 29.0648C31.5781 28.3657 31.7614 27.6788 32.1098 27.0726C32.4581 26.4664 32.9593 25.962 33.5634 25.6098L42.2677 20.5198C42.8758 20.1689 43.5655 19.9841 44.2677 19.9839C44.9698 19.9837 45.6597 20.1682 46.2679 20.5188C46.8762 20.8694 47.3815 21.3737 47.733 21.9812C48.0845 22.5887 48.27 23.278 48.2707 23.9798V34.1498C48.2707 35.2106 47.8491 36.2281 47.0985 36.9782C46.348 37.7284 45.3301 38.1498 44.2687 38.1498C43.5663 38.1453 42.877 37.9593 42.2677 37.6098L33.5634 32.5198Z" fill="#5D82D5"/>
</svg>
